<svg aria-hidden="true" style="position: absolute; width: 0; height: 0; overflow: hidden;" version="1.1" xmlns="http://www.w3.org/2000/svg" xmlns:xlink="http://www.w3.org/1999/xlink">
<defs>
<symbol id="icon-email" viewBox="0 0 42 32">
<path d="M38.25 0h-36c-0.597 0-1.169 0.237-1.591 0.659s-0.659 0.994-0.659 1.591v25.5c0 0.995 0.395 1.948 1.098 2.652s1.657 1.098 2.652 1.098h33c0.995 0 1.948-0.395 2.652-1.098s1.098-1.657 1.098-2.652v-25.5c0-0.597-0.237-1.169-0.659-1.591s-0.994-0.659-1.591-0.659zM20.25 15.697l-12.216-11.197h24.431l-12.216 11.197zM13.648 15.75l-9.148 8.385v-16.77l9.148 8.385zM16.978 18.802l1.751 1.607c0.415 0.381 0.958 0.592 1.521 0.592s1.106-0.211 1.521-0.592l1.751-1.607 8.944 8.198h-24.431l8.944-8.197zM26.852 15.75l9.148-8.385v16.77l-9.148-8.385z"></path>
</symbol>
<symbol id="icon-v" viewBox="0 0 55 32">
<path d="M51.578 5.866l-22.857 22.857c-0.319 0.32-0.697 0.573-1.114 0.746s-0.864 0.262-1.315 0.262-0.898-0.089-1.315-0.262c-0.417-0.173-0.795-0.427-1.114-0.746l-22.857-22.857c-0.644-0.644-1.006-1.518-1.006-2.429s0.362-1.784 1.006-2.429c0.644-0.644 1.518-1.006 2.429-1.006s1.784 0.362 2.429 1.006l20.431 20.431 20.431-20.434c0.644-0.644 1.518-1.006 2.429-1.006s1.784 0.362 2.428 1.006 1.006 1.518 1.006 2.429c0 0.911-0.362 1.784-1.006 2.429l-0.005 0.003z"></path>
</symbol>
<symbol id="icon-lypa" viewBox="0 0 32 32">
<path d="M30.385 27.959l-6.784-6.787c2.034-2.651 2.984-5.976 2.656-9.301s-1.907-6.401-4.419-8.604c-2.512-2.203-5.768-3.368-9.108-3.259s-6.512 1.485-8.875 3.847c-2.363 2.363-3.738 5.536-3.847 8.875s1.056 6.596 3.259 9.108c2.203 2.512 5.279 4.092 8.605 4.419s6.651-0.622 9.301-2.656l6.79 6.791c0.159 0.16 0.349 0.286 0.557 0.372s0.432 0.131 0.657 0.131 0.449-0.044 0.657-0.131c0.208-0.086 0.398-0.213 0.557-0.372s0.286-0.349 0.372-0.557c0.086-0.208 0.131-0.432 0.131-0.657s-0.044-0.449-0.131-0.657c-0.086-0.208-0.213-0.398-0.372-0.557l-0.006-0.004zM3.457 13.172c0-1.921 0.57-3.799 1.637-5.397s2.585-2.843 4.36-3.578c1.775-0.735 3.728-0.928 5.613-0.553s3.615 1.3 4.974 2.659c1.359 1.359 2.284 3.090 2.659 4.974s0.183 3.838-0.553 5.613c-0.735 1.775-1.98 3.292-3.578 4.36s-3.476 1.637-5.397 1.637c-2.576-0.003-5.045-1.027-6.866-2.848s-2.846-4.291-2.848-6.866z"></path>
</symbol>
<symbol id="icon-twitter" viewBox="0 0 38 32">
<path d="M35.756 3.352c-1.341 0.596-2.756 0.968-4.246 1.192 1.49-0.894 2.682-2.309 3.203-4.023-1.415 0.819-2.98 1.415-4.693 1.788-1.341-1.415-3.278-2.309-5.364-2.309-4.023 0-7.3 3.278-7.3 7.3 0 0.596 0.075 1.117 0.224 1.639-6.034-0.298-11.472-3.203-15.122-7.673-0.596 1.117-0.968 2.309-0.968 3.65 0 2.533 1.266 4.768 3.278 6.108-1.192-0.074-2.309-0.372-3.352-0.894v0.074c0 3.576 2.533 6.555 5.885 7.226-0.596 0.149-1.266 0.224-1.937 0.224-0.447 0-0.968-0.075-1.415-0.149 0.968 2.905 3.65 5.066 6.853 5.066-2.533 1.937-5.661 3.129-9.088 3.129-0.596 0-1.192 0-1.713-0.075 3.278 2.086 7.077 3.278 11.248 3.278 13.483 0 20.858-11.174 20.858-20.858 0-0.298 0-0.67 0-0.968 1.415-0.968 2.682-2.235 3.65-3.725z"></path>
</symbol>
<symbol id="icon-github" viewBox="0 0 32 32">
<path d="M15.951 0c-8.839 0-15.951 7.111-15.951 15.951 0 7.045 4.586 13.026 10.9 15.153 0.797 0.133 1.063-0.332 1.063-0.798 0-0.399 0-1.396 0-2.725-4.453 0.997-5.383-2.127-5.383-2.127-0.731-1.861-1.794-2.326-1.794-2.326-1.462-0.997 0.133-0.997 0.133-0.997 1.595 0.133 2.459 1.662 2.459 1.662 1.396 2.459 3.722 1.728 4.652 1.329 0.133-1.063 0.532-1.728 0.997-2.127-3.522-0.399-7.244-1.794-7.244-7.909 0-1.728 0.598-3.19 1.662-4.253-0.133-0.399-0.731-1.994 0.133-4.253 0 0 1.329-0.399 4.386 1.662 1.263-0.332 2.658-0.532 3.988-0.532s2.725 0.199 3.988 0.532c3.057-2.060 4.386-1.662 4.386-1.662 0.864 2.193 0.332 3.788 0.133 4.253 0.997 1.13 1.661 2.526 1.661 4.253 0 6.114-3.722 7.444-7.311 7.842 0.598 0.465 1.063 1.462 1.063 2.924 0 2.127 0 3.855 0 4.386 0 0.399 0.266 0.93 1.13 0.798 6.314-2.060 10.9-8.042 10.9-15.087 0-8.839-7.111-15.951-15.951-15.951z"></path>
</symbol>
<symbol id="icon-facebook" viewBox="0 0 17 32">
<path d="M4.6 29.969v-13.67h-4.6v-5.328h4.6v-3.929c0-4.559 2.785-7.042 6.852-7.042 1.948 0 3.623 0.145 4.111 0.21v4.765l-2.821 0.001c-2.212 0-2.64 1.051-2.64 2.594v3.401h5.276l-0.687 5.328h-4.589v13.67h-5.502z"></path>
</symbol>
<symbol id="icon-instagram" viewBox="0 0 32 32">
<path d="M15.484 2.79c4.134 0 4.624 0.015 6.257 0.090 0.982 0.012 1.954 0.192 2.876 0.533 0.668 0.258 1.274 0.652 1.781 1.158s0.901 1.113 1.158 1.781c0.341 0.921 0.521 1.894 0.533 2.876 0.074 1.633 0.090 2.123 0.090 6.257s-0.016 4.624-0.090 6.257c-0.012 0.982-0.192 1.955-0.533 2.876-0.258 0.668-0.652 1.274-1.158 1.781s-1.113 0.901-1.781 1.158c-0.921 0.341-1.894 0.521-2.876 0.533-1.632 0.074-2.122 0.090-6.257 0.090s-4.624-0.016-6.257-0.090c-0.982-0.012-1.955-0.192-2.876-0.533-0.668-0.258-1.274-0.652-1.781-1.158s-0.901-1.113-1.158-1.781c-0.341-0.921-0.521-1.894-0.533-2.876-0.074-1.633-0.090-2.123-0.090-6.257s0.015-4.624 0.090-6.257c0.012-0.982 0.192-1.955 0.533-2.876 0.258-0.668 0.652-1.274 1.158-1.781s1.113-0.901 1.781-1.158c0.921-0.341 1.894-0.521 2.876-0.533 1.633-0.074 2.123-0.090 6.257-0.090zM15.484 0c-4.203 0-4.732 0.018-6.384 0.093-1.285 0.026-2.557 0.269-3.76 0.72-1.033 0.389-1.968 0.999-2.741 1.787-0.788 0.773-1.399 1.709-1.788 2.742-0.451 1.204-0.694 2.475-0.72 3.76-0.074 1.65-0.091 2.18-0.091 6.382s0.018 4.732 0.093 6.384c0.026 1.285 0.269 2.557 0.72 3.76 0.389 1.033 0.999 1.969 1.787 2.742 0.773 0.788 1.709 1.398 2.742 1.787 1.204 0.451 2.475 0.694 3.76 0.72 1.652 0.074 2.179 0.093 6.384 0.093s4.732-0.018 6.384-0.093c1.285-0.026 2.557-0.269 3.76-0.72 1.028-0.398 1.962-1.007 2.741-1.787s1.388-1.714 1.786-2.743c0.451-1.204 0.694-2.475 0.72-3.76 0.074-1.65 0.091-2.18 0.091-6.382s-0.018-4.732-0.093-6.384c-0.025-1.285-0.269-2.557-0.72-3.76-0.389-1.033-0.999-1.969-1.787-2.742-0.773-0.788-1.709-1.398-2.742-1.787-1.204-0.451-2.475-0.694-3.76-0.72-1.65-0.074-2.18-0.091-6.382-0.091z"></path>
<path d="M15.487 7.536c-1.573 0-3.11 0.466-4.418 1.34s-2.327 2.116-2.929 3.568c-0.602 1.453-0.759 3.052-0.452 4.594s1.064 2.959 2.176 4.071c1.112 1.112 2.529 1.869 4.071 2.176s3.141 0.149 4.594-0.453c1.453-0.602 2.695-1.621 3.568-2.929s1.34-2.845 1.34-4.418c0-2.109-0.838-4.131-2.329-5.622s-3.514-2.329-5.622-2.329zM15.487 20.648c-1.021 0-2.019-0.303-2.867-0.87s-1.51-1.373-1.901-2.316c-0.391-0.943-0.493-1.981-0.294-2.982s0.691-1.921 1.413-2.643c0.722-0.722 1.642-1.213 2.643-1.413s2.039-0.097 2.982 0.294c0.943 0.391 1.749 1.052 2.316 1.901s0.87 1.847 0.87 2.867c0 1.369-0.544 2.682-1.512 3.65s-2.281 1.512-3.65 1.512z"></path>
<path d="M23.751 9.078c1.026 0 1.858-0.832 1.858-1.858s-0.832-1.858-1.858-1.858c-1.026 0-1.858 0.832-1.858 1.858s0.832 1.858 1.858 1.858z"></path>
</symbol>
<symbol id="icon-star4" viewBox="0 0 34 32">
<path fill="#ffc633" style="fill: var(--color1, #ffc633)" d="M16.551 0l4.93 10.616 11.62 1.408-8.573 7.97 2.251 11.487-10.229-5.691-10.229 5.691 2.251-11.487-8.573-7.97 11.62-1.408 4.93-10.616z"></path>
</symbol>
<symbol id="icon-star5" viewBox="0 0 17 32">
<path fill="#ffc633" style="fill: var(--color1, #ffc633)" d="M6.322 31.481l10.229-5.691v-25.79l-4.93 10.616-11.62 1.408 8.573 7.97-2.251 11.487z"></path>
</symbol>
<symbol id="icon-vector-1" viewBox="0 0 32 32">
<path d="M15.429 0c-3.051 0-6.034 0.905-8.572 2.6s-4.515 4.105-5.683 6.924c-1.168 2.819-1.473 5.921-0.878 8.914s2.065 5.742 4.222 7.9 4.907 3.627 7.9 4.222c2.993 0.595 6.095 0.29 8.914-0.878s5.229-3.145 6.924-5.683c1.695-2.537 2.6-5.52 2.6-8.572-0.005-4.091-1.632-8.012-4.524-10.905s-6.814-4.519-10.905-4.524zM8.51 25.224c0.796-1.088 1.837-1.973 3.039-2.583s2.531-0.928 3.879-0.928c1.348 0 2.677 0.318 3.879 0.928s2.244 1.495 3.039 2.583c-2.022 1.434-4.44 2.204-6.919 2.204s-4.897-0.77-6.919-2.204zM11.429 14.286c0-0.791 0.235-1.564 0.674-2.222s1.064-1.17 1.795-1.473c0.731-0.303 1.535-0.382 2.311-0.228s1.489 0.535 2.048 1.095c0.559 0.559 0.94 1.272 1.095 2.048s0.075 1.58-0.228 2.311c-0.303 0.731-0.815 1.356-1.473 1.795s-1.431 0.674-2.222 0.674c-1.061 0-2.078-0.422-2.828-1.172s-1.172-1.768-1.172-2.829zM24.857 22.849c-1.111-1.413-2.527-2.557-4.143-3.346 1.029-1.042 1.728-2.366 2.007-3.805s0.126-2.927-0.439-4.279c-0.565-1.352-1.517-2.507-2.737-3.319s-2.652-1.245-4.117-1.245c-1.465 0-2.898 0.433-4.117 1.245s-2.172 1.967-2.737 3.319c-0.565 1.352-0.718 2.841-0.438 4.279s0.977 2.762 2.007 3.805c-1.615 0.789-3.032 1.933-4.143 3.346-1.396-1.769-2.265-3.896-2.508-6.136s0.149-4.504 1.132-6.531 2.517-3.738 4.427-4.934c1.91-1.196 4.117-1.831 6.371-1.831s4.461 0.635 6.371 1.831c1.91 1.196 3.444 2.906 4.427 4.934s1.375 4.291 1.132 6.531c-0.243 2.24-1.113 4.367-2.508 6.136h0.014z"></path>
</symbol>
<symbol id="icon-vector-2" viewBox="0 0 35 32">
<path d="M14.286 28c0 0.565-0.168 1.118-0.482 1.587s-0.76 0.836-1.282 1.052c-0.522 0.216-1.097 0.273-1.651 0.163s-1.063-0.382-1.463-0.782-0.672-0.909-0.782-1.463c-0.11-0.554-0.054-1.129 0.163-1.651s0.582-0.968 1.052-1.282c0.47-0.314 1.022-0.482 1.587-0.482 0.758 0 1.484 0.301 2.020 0.837s0.837 1.262 0.837 2.020zM26.286 25.143c-0.565 0-1.118 0.168-1.587 0.482s-0.836 0.76-1.052 1.282c-0.216 0.522-0.273 1.097-0.163 1.651s0.382 1.063 0.782 1.463 0.909 0.672 1.463 0.782c0.554 0.11 1.129 0.054 1.651-0.163s0.968-0.583 1.282-1.052c0.314-0.47 0.482-1.022 0.482-1.587 0-0.758-0.301-1.485-0.837-2.020s-1.262-0.837-2.020-0.837zM33.639 7.933l-3.898 12.671c-0.249 0.819-0.756 1.537-1.444 2.046s-1.523 0.782-2.38 0.779h-14.069c-0.869-0.003-1.713-0.287-2.407-0.81s-1.199-1.257-1.44-2.091l-4.884-17.099h-1.401c-0.455 0-0.891-0.181-1.212-0.502s-0.502-0.758-0.502-1.212c0-0.455 0.181-0.891 0.502-1.212s0.758-0.502 1.212-0.502h1.831c0.621 0.002 1.224 0.205 1.719 0.579s0.856 0.898 1.028 1.494l1.041 3.641h24.666c0.268 0 0.533 0.063 0.772 0.184s0.447 0.296 0.607 0.512 0.266 0.466 0.311 0.73c0.045 0.264 0.027 0.536-0.051 0.792zM29.679 9.143h-21.366l2.984 10.443c0.034 0.119 0.106 0.225 0.206 0.299s0.22 0.115 0.344 0.115h14.069c0.122 0 0.241-0.039 0.34-0.111s0.171-0.175 0.207-0.292l3.216-10.454z"></path>
</symbol>
<symbol id="icon-vector" viewBox="0 0 32 32">
<path fill="#01ab31" style="fill: var(--color2, #01ab31)" d="M15.6 0c-3.085 0-6.101 0.915-8.667 2.629s-4.565 4.151-5.746 7.001c-1.181 2.851-1.49 5.987-0.888 9.013s2.088 5.806 4.269 7.988 4.961 3.668 7.987 4.269c3.026 0.602 6.163 0.293 9.013-0.888s5.287-3.18 7.001-5.746c1.714-2.565 2.629-5.581 2.629-8.667-0.004-4.136-1.649-8.101-4.574-11.026s-6.89-4.57-11.026-4.574zM22.449 12.849l-8.4 8.4c-0.111 0.112-0.244 0.2-0.389 0.26s-0.302 0.092-0.46 0.092-0.314-0.031-0.46-0.092c-0.146-0.060-0.278-0.149-0.389-0.26l-3.6-3.6c-0.225-0.225-0.352-0.531-0.352-0.849s0.127-0.624 0.352-0.849c0.225-0.225 0.531-0.352 0.849-0.352s0.624 0.127 0.849 0.352l2.751 2.753 7.551-7.553c0.112-0.111 0.244-0.2 0.389-0.26s0.302-0.091 0.46-0.091c0.158 0 0.314 0.031 0.46 0.091s0.278 0.149 0.389 0.26 0.2 0.244 0.26 0.39c0.060 0.146 0.091 0.302 0.091 0.459s-0.031 0.314-0.091 0.459c-0.060 0.146-0.149 0.278-0.26 0.39z"></path>
</symbol>
<symbol id="icon-burger" viewBox="0 0 24 24"><path stroke="currentColor" stroke-linecap="round" stroke-linejoin="round" stroke-width="2" d="M4 6h16M4 12h16M4 18h16"/></symbol>
</defs>
</svg>
